<svg width="164" height="33" viewBox="0 0 164 33" fill="none" xmlns="http://www.w3.org/2000/svg">
<g clip-path="url(#clip0_4604_2174)">
<path d="M48.0771 11.8763C49.7271 11.8763 51.302 12.6289 52.002 13.8184L52.102 12.1676H55.0269V24.1357H52.152L52.002 22.3879C51.302 23.7959 49.3771 24.4756 48.0021 24.4999C44.3522 24.5242 41.6523 22.3393 41.6523 18.1395C41.6523 14.0126 44.4772 11.852 48.0771 11.8763ZM48.3521 14.5224C46.3272 14.5224 44.7022 15.8576 44.7022 18.1395C44.7022 20.4215 46.3272 21.781 48.3521 21.781C53.1519 21.781 53.1519 14.5224 48.3521 14.5224ZM57.4247 7.16675H60.4496V24.1357H57.4247V7.16675ZM62.9474 7.16675H65.9723V24.1357H62.9474V7.16675ZM76.9948 20.6643L79.0448 22.6063C77.6198 23.9658 76.1199 24.4999 74.2949 24.4999C70.7201 24.4999 67.7452 22.4121 67.7452 18.1638C67.7452 13.9155 70.7201 11.8278 74.2949 11.8278C76.0449 11.8278 77.3948 12.3133 78.7448 13.5999L76.8198 15.5663C76.0949 14.9351 75.1949 14.6195 74.3449 14.6195C72.295 14.6195 70.795 16.0761 70.795 18.1638C70.795 20.4458 72.395 21.6596 74.2949 21.6596C75.2699 21.6596 76.2449 21.3925 76.9948 20.6643ZM86.2674 11.9249C90.1923 11.9249 92.7172 14.7409 92.7172 18.1638C92.7172 21.611 90.2923 24.4028 86.2924 24.4028C82.2925 24.4028 79.8926 21.611 79.8926 18.1638C79.8926 14.7409 82.3426 11.9249 86.2674 11.9249ZM86.2924 14.6195C84.0925 14.6195 82.9425 16.3674 82.9425 18.1638C82.9425 19.9845 84.0675 21.6839 86.2924 21.6839C88.5173 21.6839 89.6423 19.9845 89.6423 18.1638C89.6423 16.3674 88.3423 14.6195 86.2924 14.6195ZM106.765 24.1357H103.715V17.8725C103.715 16.0518 102.69 14.6681 100.74 14.6681C98.8649 14.6681 97.5899 16.1975 97.5899 18.0182V24.1357H94.565V12.1433H97.2899L97.4899 13.7698C98.7399 12.5803 99.9898 11.9734 101.54 11.9734C104.44 11.9734 106.765 14.0854 106.765 17.8482V24.1357ZM121.337 24.1357H118.287V17.8725C118.287 16.0518 117.262 14.6681 115.312 14.6681C113.437 14.6681 112.162 16.1975 112.162 18.0182V24.1357H109.137V12.1433H111.862L112.062 13.7698C113.312 12.5803 114.562 11.9734 116.112 11.9734C119.012 11.9734 121.337 14.0854 121.337 17.8482V24.1357ZM129.785 11.8035C133.909 11.8035 136.484 14.2796 136.009 19.2077H126.385C126.585 20.6885 127.91 21.7567 130.06 21.7567C131.185 21.7567 132.659 21.344 133.359 20.64L135.309 22.5092C134.009 23.8202 131.885 24.4513 130.01 24.4513C125.76 24.4513 123.235 21.9023 123.235 18.0667C123.235 14.4253 125.785 11.8035 129.785 11.8035ZM129.885 14.4253C128.235 14.4253 126.885 15.2021 126.435 16.7558H133.084C132.884 15.2021 131.635 14.4253 129.885 14.4253ZM146.707 20.6643L148.757 22.6063C147.332 23.9658 145.832 24.4999 144.007 24.4999C140.432 24.4999 137.457 22.4121 137.457 18.1638C137.457 13.9155 140.432 11.8278 144.007 11.8278C145.757 11.8278 147.107 12.3133 148.457 13.5999L146.532 15.5663C145.807 14.9351 144.907 14.6195 144.057 14.6195C142.007 14.6195 140.507 16.0761 140.507 18.1638C140.507 20.4458 142.107 21.6596 144.007 21.6596C144.982 21.6596 145.957 21.3925 146.707 20.6643ZM154.23 8.79325V12.1919H157.629V14.7409H154.205V19.9117C154.205 21.0527 154.855 21.611 155.804 21.611C156.279 21.611 156.829 21.4654 157.279 21.2469L158.129 23.7716C157.254 24.1115 156.529 24.2571 155.605 24.2814C152.93 24.3785 151.18 22.8977 151.18 19.9117V14.7409H148.88V12.1919H151.18V9.10884L154.23 8.79325ZM161.123 8.18172C161.719 8.18172 162.227 8.39266 162.649 8.81453C163.07 9.23641 163.281 9.7452 163.281 10.3409C163.281 10.9542 163.065 11.4708 162.634 11.8907C162.214 12.297 161.711 12.5001 161.123 12.5001C160.517 12.5001 160.005 12.2921 159.59 11.8761C159.174 11.46 158.966 10.9483 158.966 10.3409C158.966 9.71004 159.19 9.18563 159.639 8.76766C160.061 8.37703 160.556 8.18172 161.123 8.18172ZM161.123 8.55086C160.628 8.55086 160.205 8.73055 159.856 9.08993C159.512 9.44149 159.341 9.85848 159.341 10.3409C159.341 10.8409 159.515 11.2657 159.865 11.6153C160.212 11.9649 160.632 12.1397 161.123 12.1397C161.613 12.1397 162.032 11.9639 162.379 11.6124C162.727 11.2589 162.9 10.835 162.9 10.3409C162.9 9.86043 162.728 9.44344 162.382 9.08993C162.033 8.73055 161.613 8.55086 161.123 8.55086ZM160.351 9.14868C160.384 9.14874 160.419 9.1488 160.456 9.14889L160.702 9.14954L160.844 9.14998C161.14 9.15096 161.304 9.15243 161.337 9.15438C161.526 9.16805 161.684 9.20907 161.808 9.27743C162.021 9.39461 162.127 9.58504 162.127 9.84871C162.127 10.0499 162.071 10.1954 161.959 10.2852C161.847 10.3751 161.709 10.4288 161.545 10.4464C161.695 10.4776 161.808 10.5235 161.885 10.5841C162.025 10.6973 162.095 10.8761 162.095 11.1202V11.3341L162.096 11.3692L162.1 11.4044C162.103 11.4278 162.108 11.4513 162.116 11.4747L162.136 11.5421H161.539L161.526 11.4785C161.514 11.4086 161.505 11.3194 161.501 11.211C161.495 11.0665 161.482 10.9688 161.463 10.9181C161.432 10.8341 161.373 10.7755 161.287 10.7423C161.241 10.7227 161.169 10.71 161.074 10.7042L160.936 10.6954H160.804V11.5421H160.178V9.14852L160.351 9.14868ZM160.957 9.57039H160.804V10.2647H161.047C161.194 10.2647 161.308 10.2354 161.39 10.1768C161.472 10.1182 161.513 10.0235 161.513 9.89266C161.513 9.7618 161.448 9.67098 161.32 9.6202C161.234 9.587 161.113 9.57039 160.957 9.57039Z" fill="#62748E"/>
<path d="M26.8989 27.8196C28.5585 30.6621 32.5111 32.5 32.32 32.5V16.1179C32.32 7.49292 25.1646 0.5 16.3364 0.5C7.50944 0.5 0.352783 7.49292 0.352783 16.1179C0.352783 24.7442 7.50944 31.7358 16.3364 31.7358C20.3909 31.7358 24.0804 30.2508 26.8989 27.8196ZM11.6066 9.58052C12.1274 10.0894 12.1274 10.9119 11.6066 11.4208C8.99857 13.9692 8.99857 18.1183 11.6066 20.6666C14.2146 23.2137 18.4582 23.2163 21.0675 20.6666C23.6755 18.1183 23.6755 13.9692 21.0675 11.4208C20.5467 10.9119 20.5467 10.0894 21.0675 9.58052C21.587 9.07163 22.4301 9.07163 22.9509 9.58052C26.5965 13.144 26.5965 18.9422 22.9509 22.507C21.1275 24.2887 18.7326 25.1789 16.3364 25.1789C13.9415 25.1789 11.5466 24.2887 9.72316 22.507C6.07624 18.9422 6.07624 13.144 9.72316 9.58052C10.244 9.07163 11.0858 9.07163 11.6066 9.58052ZM16.3364 6.58708C17.073 6.58708 17.6683 7.16885 17.6683 7.88858V15.0169C17.6683 15.7353 17.073 16.3183 16.3364 16.3183C15.6011 16.3183 15.0044 15.7353 15.0044 15.0169V7.88858C15.0044 7.16885 15.6011 6.58708 16.3364 6.58708Z" fill="#62748E"/>
</g>
<defs>
<clipPath id="clip0_4604_2174">
<rect width="163" height="32" fill="white" transform="translate(0.352783 0.5)"/>
</clipPath>
</defs>
</svg>
