<svg width="46" height="45" viewBox="0 0 46 45" fill="none" xmlns="http://www.w3.org/2000/svg">
<g clip-path="url(#clip0_4604_2073)">
<path d="M45.7528 44.9H0.852783V0H45.7528V44.9Z" fill="#62748E"/>
<path d="M45.7528 24.32V0.0200195H0.852783V44.92H45.7528V31.82C45.6528 31.82 45.7528 24.32 45.7528 24.32Z" fill="#62748E"/>
<path d="M40.2528 21.82H43.6528V13.92H39.9528V15.02L39.2528 13.92H36.0528V15.32L35.4528 13.92H29.5528C29.3528 13.92 29.1528 14.02 28.9528 14.02C28.7528 14.02 28.6528 14.12 28.4528 14.22C28.2528 14.32 28.1528 14.32 27.9528 14.42V13.92H11.0528L10.5528 15.22L10.0528 13.92H6.05278V15.32L5.45278 13.92H2.25278L0.852783 17.32V21.82H3.15278L3.55278 20.72H4.35278L4.75278 21.82H22.3528V20.82L23.0528 21.82H27.9528V21.22C28.0528 21.32 28.2528 21.32 28.3528 21.42C28.4528 21.52 28.6528 21.52 28.7528 21.62C28.9528 21.72 29.1528 21.72 29.3528 21.72H32.9528L33.3528 20.62H34.1528L34.5528 21.72H39.4528V20.72L40.2528 21.82ZM45.7528 31.82V24.42H18.2528L17.5528 25.42L16.8528 24.42H8.85278V32.32H16.8528L17.5528 31.32L18.2528 32.32H23.2528V30.62H23.0528C23.7528 30.62 24.3528 30.52 24.8528 30.32V32.42H28.4528V31.42L29.1528 32.42H44.0528C44.6528 32.22 45.2528 32.12 45.7528 31.82Z" fill="white"/>
<path d="M44.0528 29.92H41.3528V31.02H43.9528C45.0528 31.02 45.7528 30.32 45.7528 29.32C45.7528 28.32 45.1528 27.82 44.1528 27.82H42.9528C42.6528 27.82 42.4528 27.62 42.4528 27.32C42.4528 27.02 42.6528 26.82 42.9528 26.82H45.2528L45.7528 25.72H43.0528C41.9528 25.72 41.2528 26.42 41.2528 27.32C41.2528 28.32 41.8528 28.82 42.8528 28.82H44.0528C44.3528 28.82 44.5528 29.02 44.5528 29.32C44.6528 29.72 44.4528 29.92 44.0528 29.92ZM39.1528 29.92H36.4528V31.02H39.0528C40.1528 31.02 40.8528 30.32 40.8528 29.32C40.8528 28.32 40.2528 27.82 39.2528 27.82H38.0528C37.7528 27.82 37.5528 27.62 37.5528 27.32C37.5528 27.02 37.7528 26.82 38.0528 26.82H40.3528L40.8528 25.72H38.1528C37.0528 25.72 36.3528 26.42 36.3528 27.32C36.3528 28.32 36.9528 28.82 37.9528 28.82H39.1528C39.4528 28.82 39.6528 29.02 39.6528 29.32C39.7528 29.72 39.4528 29.92 39.1528 29.92ZM35.6528 26.72V25.62H31.4528V30.92H35.6528V29.82H32.6528V28.72H35.5528V27.62H32.6528V26.62H35.6528V26.72ZM28.8528 26.72C29.3528 26.72 29.5528 27.02 29.5528 27.32C29.5528 27.62 29.3528 27.92 28.8528 27.92H27.3528V26.62L28.8528 26.72ZM27.3528 29.02H27.9528L29.5528 30.92H31.0528L29.2528 28.92C30.1528 28.72 30.6528 28.12 30.6528 27.32C30.6528 26.32 29.9528 25.62 28.8528 25.62H26.0528V30.92H27.2528L27.3528 29.02ZM24.1528 27.42C24.1528 27.82 23.9528 28.12 23.4528 28.12H21.8528V26.72H23.3528C23.8528 26.72 24.1528 27.02 24.1528 27.42ZM20.6528 25.62V30.92H21.8528V29.12H23.4528C24.5528 29.12 25.3528 28.42 25.3528 27.32C25.3528 26.32 24.6528 25.52 23.5528 25.52L20.6528 25.62ZM18.8528 30.92H20.3528L18.2528 28.22L20.3528 25.62H18.8528L17.5528 27.32L16.2528 25.62H14.7528L16.8528 28.22L14.7528 30.82H16.2528L17.5528 29.12L18.8528 30.92ZM14.3528 26.72V25.62H10.1528V30.92H14.3528V29.82H11.3528V28.72H14.2528V27.62H11.3528V26.62H14.3528V26.72ZM38.6528 17.32L40.7528 20.52H42.2528V15.22H41.0528V18.72L40.7528 18.22L38.8528 15.22H37.2528V20.52H38.4528V16.92L38.6528 17.32ZM33.4528 17.22L33.8528 16.12L34.2528 17.22L34.7528 18.42H32.9528L33.4528 17.22ZM35.5528 20.52H36.8528L34.5528 15.22H32.9528L30.6528 20.52H31.9528L32.4528 19.42H35.0528L35.5528 20.52ZM29.9528 20.52L30.4528 19.42H30.1528C29.2528 19.42 28.7528 18.82 28.7528 17.92V17.82C28.7528 16.92 29.2528 16.32 30.1528 16.32H31.4528V15.22H30.0528C28.4528 15.22 27.5528 16.32 27.5528 17.82V17.92C27.5528 19.52 28.4528 20.52 29.9528 20.52ZM25.4528 20.52H26.6528V15.32H25.4528V20.52ZM22.8528 16.32C23.3528 16.32 23.5528 16.62 23.5528 16.92C23.5528 17.22 23.3528 17.52 22.8528 17.52H21.3528V16.22L22.8528 16.32ZM21.3528 18.62H21.9528L23.5528 20.52H25.0528L23.2528 18.52C24.1528 18.32 24.6528 17.72 24.6528 16.92C24.6528 15.92 23.9528 15.22 22.8528 15.22H20.0528V20.52H21.2528L21.3528 18.62ZM19.1528 16.32V15.22H14.9528V20.52H19.1528V19.42H16.1528V18.32H19.0528V17.22H16.1528V16.22H19.1528V16.32ZM10.0528 20.52H11.1528L12.6528 16.22V20.52H13.8528V15.22H11.8528L10.6528 18.82L9.45278 15.22H7.45278V20.52H8.65278V16.22L10.0528 20.52ZM3.55278 17.22L3.95278 16.12L4.35278 17.22L4.85278 18.42H3.05278L3.55278 17.22ZM5.65278 20.52H6.95278L4.65278 15.22H3.15278L0.852783 20.52H2.15278L2.65278 19.42H5.25278L5.65278 20.52Z" fill="#62748E"/>
</g>
<defs>
<clipPath id="clip0_4604_2073">
<rect width="45" height="45" fill="white" transform="translate(0.852783)"/>
</clipPath>
</defs>
</svg>
