<svg width="70" height="25" viewBox="0 0 70 25" fill="none" xmlns="http://www.w3.org/2000/svg">
<g clip-path="url(#clip0_4604_2078)">
<path fill-rule="evenodd" clip-rule="evenodd" d="M57.7798 0.500091C55.0475 0.495697 52.3985 1.43975 50.2848 3.17109C48.1568 1.43958 45.4962 0.496061 42.7528 0.500091C40.0197 0.489325 37.3689 1.43414 35.2588 3.17109C33.1998 1.50609 30.5978 0.500091 27.7628 0.500091C25.0309 0.495928 22.3822 1.43997 20.2688 3.17109C18.2108 1.50609 15.6088 0.500091 12.7728 0.500091C6.17278 0.500091 0.852783 5.80309 0.852783 12.3841C0.852783 18.9641 6.17278 24.2681 12.7738 24.2681C15.6088 24.2681 18.2488 23.2611 20.2688 21.5971C22.3268 23.2611 24.9288 24.2671 27.7628 24.2671C30.5978 24.2671 33.2378 23.2611 35.2578 21.5971C37.3861 23.3285 40.0471 24.2716 42.7908 24.2671C45.6648 24.2671 48.2658 23.2611 50.3238 21.5971C52.3818 23.2611 54.9838 24.2671 57.8188 24.2671C64.4198 24.2671 69.7398 18.9651 69.7398 12.3841C69.7008 5.84209 64.3808 0.500091 57.7798 0.500091ZM50.2848 17.7261C49.1688 16.1688 48.5713 14.2999 48.5768 12.3841C48.5768 10.4101 49.1978 8.55209 50.2848 7.04209C51.4011 8.59922 51.999 10.4682 51.9938 12.3841C51.9938 14.3971 51.3338 16.2161 50.2848 17.7261ZM35.2578 17.7261C34.1415 16.169 33.5436 14.3 33.5488 12.3841C33.5488 10.4101 34.1698 8.55209 35.2578 7.04209C36.3737 8.59934 36.9713 10.4683 36.9658 12.3841C36.9658 14.3971 36.3058 16.2161 35.2578 17.7261ZM20.2298 17.7261C19.1135 16.169 18.5156 14.3 18.5208 12.3841C18.5208 10.4101 19.1428 8.55209 20.2298 7.04209C21.3457 8.59934 21.9433 10.4683 21.9378 12.3841C21.9378 14.3971 21.2778 16.2161 20.2298 17.7261ZM3.45478 12.3841C3.45478 7.31309 7.57078 3.17109 12.6968 3.17109C14.7314 3.16492 16.7108 3.83189 18.3268 5.06809C16.7348 7.08109 15.8028 9.59709 15.8028 12.3841C15.8028 15.1321 16.7348 17.6871 18.3268 19.7001C16.7738 20.9001 14.8318 21.5971 12.6968 21.5971C7.60978 21.5971 3.45478 17.4941 3.45478 12.3841ZM22.0928 19.7001C23.6848 17.6871 24.6168 15.1711 24.6168 12.3841C24.6168 9.63509 23.6848 7.08109 22.0928 5.06809C23.6458 3.86809 25.5878 3.17109 27.7228 3.17109C29.8588 3.17109 31.8008 3.86809 33.3528 5.06809C31.7618 7.08109 30.8298 9.59709 30.8298 12.3841C30.8298 15.1321 31.7618 17.6871 33.3538 19.7001C31.8008 20.9001 29.8588 21.5971 27.7238 21.5971C25.5878 21.5971 23.6458 20.9001 22.0928 19.7001ZM37.1208 19.7001C38.7128 17.6871 39.6448 15.1711 39.6448 12.3841C39.6448 9.63509 38.7128 7.08109 37.1208 5.06809C38.6738 3.86809 40.6148 3.17109 42.7508 3.17109C44.7854 3.16492 46.7648 3.83189 48.3808 5.06809C46.7898 7.08109 45.8578 9.59709 45.8578 12.3841C45.8578 15.1321 46.7898 17.6871 48.3818 19.7001C46.8278 20.9001 44.8868 21.5971 42.7518 21.5971C40.7169 21.6035 38.737 20.9365 37.1208 19.7001ZM57.7788 21.5971C55.7442 21.6033 53.7647 20.9363 52.1488 19.7001C53.7398 17.6871 54.6718 15.1711 54.6718 12.3841C54.6718 9.63509 53.7398 7.08109 52.1478 5.06809C53.7018 3.86809 55.6428 3.17109 57.7778 3.17109C62.8658 3.17109 67.0208 7.27409 67.0208 12.3841C67.0208 17.4941 62.8658 21.5971 57.7788 21.5971Z" fill="#62748E"/>
</g>
<defs>
<clipPath id="clip0_4604_2078">
<rect width="69" height="24" fill="white" transform="translate(0.852783 0.5)"/>
</clipPath>
</defs>
</svg>
