<svg width="121" height="27" viewBox="0 0 121 27" fill="none" xmlns="http://www.w3.org/2000/svg">
<path d="M25.0735 8.75617C27.3298 8.75628 29.2285 9.5702 30.425 11.2777H30.4797V9.15558H33.3792V24.2181L30.4797 24.2249V21.887H30.425C29.3392 23.6882 27.3887 24.6068 25.1838 24.6068C20.6708 24.6067 16.9886 21.2889 16.9885 16.9407C16.9887 12.128 20.531 8.75625 25.0735 8.75617ZM83.5706 8.75617C85.8269 8.75628 87.7219 9.57022 88.9221 11.2777H88.9768V9.15558H91.8762V24.2181L88.9768 24.2249V21.887H88.9221C87.8363 23.6882 85.882 24.6068 83.6809 24.6068C79.1642 24.6067 75.4856 21.2889 75.4856 16.9407C75.4858 12.128 79.0281 8.75627 83.5706 8.75617ZM109.999 8.75617C112.122 8.72116 114.169 9.52463 115.675 10.9837C117.182 12.443 118.02 14.4343 117.998 16.5052C118.011 16.9774 117.982 17.4498 117.913 17.9173H105.127C105.796 20.421 107.831 22.0237 110.198 22.0237C112.031 22.0382 113.724 21.0698 114.605 19.5023H117.503C116.375 22.5566 113.409 24.5961 110.08 24.6068C105.733 24.6067 102.221 20.8534 102.221 16.8294C102.221 12.0741 105.915 8.75618 109.999 8.75617ZM6.88794 1.55109C8.62864 1.49865 10.3168 2.13671 11.5667 3.31965C12.6403 4.38393 13.2826 5.79202 13.3733 7.28254C13.4828 8.70821 13.0658 10.1252 12.1985 11.2777C12.0438 11.4788 11.8748 11.6692 11.6926 11.847C12.2187 12.1399 12.6994 12.5041 13.1213 12.928C14.337 14.1635 15.0055 15.8154 14.9827 17.5277C15.0113 19.3381 14.2763 21.0807 12.9495 22.347C11.6226 23.6133 9.82105 24.2923 7.96606 24.2249H0.852783V1.55109H6.88794ZM43.1965 8.75617C46.8897 8.75625 49.634 11.0407 49.634 15.2015V24.2249H46.7268V16.015C46.7267 12.8341 45.4451 11.3323 42.8821 11.3323C40.3193 11.3325 38.8197 13.1548 38.8196 15.9788V24.2181H35.9202V9.1634H38.6243V10.7659H38.6799C39.8248 9.32526 41.4129 8.75617 43.1965 8.75617ZM55.1028 24.2249H52.2034V4.10578H55.1028V24.2249ZM58.5891 16.6849L65.0334 24.2249H61.6135L55.2209 16.6849L60.9563 9.1634H64.2356L58.5891 16.6849ZM69.5764 10.305C69.5903 10.2876 70.6434 8.97739 73.3655 9.17414C74.1852 9.23099 74.9876 9.43343 75.7327 9.77179L74.5403 12.265C72.5385 11.5264 70.4808 12.121 69.8567 13.9691C69.6654 14.5509 69.571 15.1589 69.5764 15.7698V24.2249H66.677V9.1634H69.5764V10.305ZM98.9827 9.1634H101.52V11.7464H98.9827V24.2249H96.0833V11.7464H93.9934V9.1634H96.0833V4.11945H98.9827V9.1634ZM25.1575 11.3392C22.2586 11.3394 19.8881 13.76 19.8879 16.721C19.888 19.5488 22.2585 22.0235 25.1575 22.0237C28.1342 21.9902 30.5279 19.6248 30.5237 16.721H30.5354C30.5352 13.7851 28.3631 11.3392 25.1575 11.3392ZM83.6506 11.3392C80.7518 11.3394 78.3842 13.7601 78.384 16.721C78.3841 19.5488 80.7517 22.0235 83.6506 22.0237C86.6331 21.998 89.0356 19.6303 89.0315 16.721C89.0313 13.7851 86.8563 11.3392 83.6506 11.3392ZM3.56372 21.5814H7.96606C10.9499 21.5813 12.2833 19.481 12.2834 17.5286C12.2834 15.6626 11.0534 13.5003 7.57446 13.5003H3.56372V21.5814ZM110.114 11.3939C107.554 11.3941 105.406 13.2744 105.128 15.7562H115.1C114.822 13.2742 112.673 11.3939 110.114 11.3939ZM118.746 8.71711C119.386 8.71953 119.903 9.22281 119.904 9.84211C119.903 10.4615 119.386 10.9647 118.746 10.9671C118.437 10.967 118.139 10.8466 117.92 10.6341C117.702 10.4215 117.579 10.1331 117.58 9.83332C117.585 9.21423 118.107 8.71505 118.746 8.71711ZM3.56372 10.8597H7.8147C9.51377 10.6017 10.7392 9.13458 10.6545 7.45929C10.5437 5.83458 9.33555 4.19562 6.88696 4.19562H3.56372V10.8597ZM118.724 8.96418C118.218 8.97381 117.815 9.377 117.822 9.86652C117.829 10.3566 118.244 10.7497 118.75 10.7454C119.254 10.7271 119.651 10.3218 119.644 9.83332H119.661C119.649 9.34354 119.23 8.95501 118.724 8.96418ZM118.784 9.21027C119.078 9.21027 119.246 9.33243 119.246 9.55793C119.258 9.7088 119.15 9.84398 118.996 9.8714C119.16 9.91322 119.221 9.99341 119.221 10.2396C119.215 10.3236 119.23 10.4082 119.264 10.4857L119.065 10.4945C119.034 10.4263 119.021 10.3509 119.027 10.2767C119.026 10.0389 118.957 9.97987 118.75 9.9798H118.444V10.4945H118.214V9.21027H118.784ZM118.444 9.77472H118.777C118.958 9.77462 119.048 9.69959 119.048 9.57843C119.048 9.4576 118.979 9.41929 118.798 9.41926H118.444V9.77472Z" fill="#62748E"/>
</svg>
