<svg width="24" height="24" viewBox="0 0 24 24" fill="none" xmlns="http://www.w3.org/2000/svg">
<path fill-rule="evenodd" clip-rule="evenodd" d="M7.48162 22.4795H16.5184C20.0988 22.4795 22.5 19.9736 22.5 16.2363V7.72274C22.5 3.98536 20.0988 1.47949 16.5184 1.47949H7.48162C3.90123 1.47949 1.5 3.99607 1.5 7.72274V16.2363C1.5 19.9736 3.90123 22.4795 7.48162 22.4795ZM3.21516 7.73344C3.21516 4.98128 4.88744 3.20361 7.48162 3.20361H16.5184C19.1126 3.20361 20.7848 4.98128 20.7848 7.73344V16.247C20.7848 18.9991 19.1126 20.7768 16.5184 20.7768H7.48162C4.88744 20.7768 3.21516 18.9991 3.21516 16.247V7.73344ZM6.61304 15.5078C6.61304 15.979 6.99895 16.3645 7.47062 16.3645C7.94229 16.3645 8.3282 15.979 8.3282 15.5078V11.4706C8.3282 10.9994 7.94229 10.6139 7.47062 10.6139C6.99895 10.6139 6.61304 10.9994 6.61304 11.4706V15.5078ZM16.5397 16.3649C16.068 16.3649 15.6821 15.9793 15.6821 15.5081V11.8564C15.6821 10.8177 14.8352 9.96098 13.7847 9.96098C12.7342 9.96098 11.898 10.807 11.898 11.8564V15.5081C11.898 15.9793 11.5121 16.3649 11.0404 16.3649C10.5688 16.3649 10.1829 15.9793 10.1829 15.5081V11.8564C10.1829 9.8646 11.8015 8.25828 13.7847 8.25828C15.7679 8.25828 17.3973 9.87531 17.3973 11.8564V15.5081C17.3973 15.9793 17.0113 16.3649 16.5397 16.3649ZM8.37148 8.46181C8.37148 8.95862 7.96833 9.36135 7.47102 9.36135C6.97371 9.36135 6.57056 8.95862 6.57056 8.46181C6.57056 7.96501 6.97371 7.56227 7.47102 7.56227C7.96833 7.56227 8.37148 7.96501 8.37148 8.46181Z" fill="#151515"/>
</svg>
