<svg width="24" height="24" viewBox="0 0 24 24" fill="none" xmlns="http://www.w3.org/2000/svg">
<path fill-rule="evenodd" clip-rule="evenodd" d="M19.6593 19.6582H16.4341V14.6098C16.4341 13.4063 16.4123 11.8584 14.7568 11.8584C13.0796 11.8584 12.8234 13.1707 12.8234 14.524V19.6582H9.60059V9.27862H12.6917V10.6972H12.7364C13.1678 9.88157 14.2191 9.02124 15.7888 9.02124C19.0563 9.02124 19.6593 11.1697 19.6593 13.9657V19.6582ZM5.9636 7.86135C4.92679 7.86135 4.09058 7.02277 4.09058 5.98964C4.09058 4.95772 4.92679 4.11914 5.9636 4.11914C6.99436 4.11914 7.83299 4.95772 7.83299 5.98964C7.83299 7.02277 6.99436 7.86135 5.9636 7.86135ZM4.34692 19.6579H7.57698V9.27832H4.34692V19.6579ZM21.2654 1.125H2.72855C1.844 1.125 1.125 1.82704 1.125 2.69342V21.3054C1.125 22.1718 1.844 22.875 2.72855 22.875H21.2654C22.1524 22.875 22.875 22.1718 22.875 21.3054V2.69342C22.875 1.82704 22.1524 1.125 21.2654 1.125V1.125Z" fill="white"/>
</svg>
