<svg width="36" height="36" viewBox="0 0 36 36" fill="none" xmlns="http://www.w3.org/2000/svg">
<path d="M33.9821 25.8744C32.5489 28.506 30.4604 30.7314 27.9148 32.3394C25.3693 33.9474 22.451 34.8848 19.4368 35.0626C16.4227 35.2404 13.4126 34.6527 10.6923 33.3553C7.97189 32.0578 5.63139 30.0937 3.89281 27.6493C2.15423 25.2048 1.07522 22.361 0.758145 19.3877C0.441074 16.4144 0.896454 13.4102 2.08109 10.6601C3.26572 7.90996 5.14032 5.50514 7.52704 3.67375C9.91376 1.84237 12.7335 0.645152 15.7186 0.195683C16.1624 0.129225 16.6173 0.077535 17.0684 0.047998C17.5196 0.018461 17.9447 3.27895e-07 18.3847 3.27895e-07C20.716 -0.000446639 23.0242 0.456069 25.1765 1.34322C27.3287 2.23038 29.2822 3.53062 30.9245 5.16898C31.326 5.56409 31.5526 6.10095 31.5543 6.66146C31.5561 7.22196 31.3329 7.7602 30.9338 8.15776C30.5348 8.55532 29.9926 8.77964 29.4265 8.78137C28.8605 8.7831 28.3169 8.5621 27.9154 8.16699C26.5383 6.78451 24.8723 5.71714 23.0345 5.03976V5.03976L22.6616 4.90684C20.238 4.10258 17.6329 4.0002 15.1526 4.61174C12.6722 5.22328 10.4198 6.52331 8.66009 8.35898C6.26929 10.8328 4.93483 14.1247 4.93483 17.5487C4.93483 20.9727 6.26929 24.2646 8.66009 26.7384C10.1268 28.2588 11.9362 29.4139 13.9402 30.1091C15.9443 30.8043 18.0861 31.02 20.1904 30.7384C22.2948 30.4567 24.3019 29.6859 26.0476 28.4888C27.7934 27.2918 29.2282 25.7026 30.2347 23.8511C30.4169 23.5207 30.687 23.2459 31.0156 23.0566C31.3442 22.8672 31.7189 22.7704 32.0991 22.7767H32.1475C32.5128 22.7802 32.8708 22.8774 33.1869 23.0586C33.5029 23.2399 33.7661 23.4992 33.9509 23.8111C34.1356 24.1231 34.2356 24.4771 34.2411 24.8387C34.2465 25.2003 34.1573 25.5571 33.9821 25.8744Z" fill="#0FD9F4"/>
<path d="M30.5849 16.9063C30.4531 16.4962 30.1917 16.1388 29.8392 15.8868C29.4868 15.6349 29.0619 15.5018 28.6273 15.507C26.1178 15.507 20.9721 15.507 18.4664 15.507H18.3135C18.0191 15.5265 17.7322 15.6081 17.4722 15.7462C17.2121 15.8843 16.9848 16.0758 16.8055 16.3079C16.6262 16.5399 16.499 16.8072 16.4324 17.0919C16.3658 17.3766 16.3613 17.672 16.4193 17.9586C16.526 18.4233 16.788 18.8388 17.1629 19.1377C17.5379 19.4365 18.0037 19.6013 18.4851 19.6052C19.7379 19.6052 20.8006 19.6052 22.0535 19.6052C23.3063 19.6052 27.408 19.6052 28.6683 19.6052C28.993 19.5997 29.3119 19.5183 29.5988 19.3676C29.8857 19.2169 30.1327 19.0013 30.3195 18.7382C30.5063 18.4751 30.6277 18.1721 30.6738 17.8537C30.7199 17.5354 30.6895 17.2108 30.5849 16.9063V16.9063Z" fill="#333333"/>
<path d="M26.5026 23.397C26.503 22.9124 26.3399 22.4415 26.0392 22.0591C25.7384 21.6767 25.3173 21.4047 24.8426 21.2864C24.368 21.168 23.867 21.2101 23.4192 21.4058C22.9715 21.6016 22.6026 21.9399 22.3711 22.3669V22.3854C21.4491 23.1227 20.3351 23.5866 19.158 23.7233C17.9808 23.8601 16.7887 23.6642 15.7192 23.1583C14.6498 22.6524 13.7468 21.8572 13.1147 20.8645C12.4825 19.8718 12.147 18.7223 12.1469 17.5487C12.1513 16.8399 12.2774 16.137 12.5198 15.4701C12.6386 15.1181 12.7883 14.7771 12.9672 14.451V14.451C13.394 13.7136 13.9691 13.0707 14.6569 12.5621C15.3447 12.0535 16.1305 11.69 16.9658 11.4941C17.8011 11.2983 18.6681 11.2742 19.5132 11.4233C20.3582 11.5725 21.1634 11.8917 21.8789 12.3613V12.3613C21.9548 12.4267 22.0358 12.486 22.1213 12.5385L22.1959 12.5828C22.5997 12.8166 23.0709 12.9102 23.5345 12.8486V12.8486L23.6837 12.8228C23.7583 12.81 23.8319 12.7915 23.9037 12.7674C24.3375 12.6314 24.7161 12.3618 24.9843 11.9978C25.2526 11.6339 25.3965 11.1947 25.3952 10.7441C25.3953 10.644 25.3878 10.5441 25.3728 10.4451C25.3577 10.3193 25.329 10.1955 25.287 10.0759C25.1728 9.73295 24.9727 9.42428 24.7053 9.17866V9.17866C24.6344 9.106 24.5597 9.03699 24.4816 8.9719L24.2057 8.78361C22.3662 7.58917 20.1964 6.99225 17.9983 7.07591C15.8002 7.15957 13.6831 7.91966 11.9417 9.25038C10.2002 10.5811 8.92106 12.4163 8.28218 14.5005C7.64329 16.5847 7.67647 18.8143 8.37711 20.879C8.8337 22.2209 9.55959 23.4576 10.5112 24.5146C11.4627 25.5717 12.6203 26.4273 13.9143 27.0301C15.8211 27.9125 17.9502 28.212 20.0298 27.8904C22.1093 27.5688 24.0448 26.6407 25.5891 25.2247L25.5555 25.1914C25.8485 24.9908 26.0878 24.7226 26.2528 24.41C26.4178 24.0974 26.5035 23.7498 26.5026 23.397V23.397Z" fill="#333333"/>
<path d="M32.5826 12.8525C33.7544 12.8525 34.7043 11.912 34.7043 10.7517C34.7043 9.59145 33.7544 8.65088 32.5826 8.65088C31.4108 8.65088 30.4609 9.59145 30.4609 10.7517C30.4609 11.912 31.4108 12.8525 32.5826 12.8525Z" fill="#0FD9F4"/>
<path d="M23.035 5.04014C22.9059 5.01032 22.7808 4.96571 22.6621 4.90723L23.035 5.04014Z" fill="#005BC6"/>
<path d="M17.0687 0.048004C16.6175 0.077541 16.1626 0.129231 15.7189 0.195689C16.1406 0.00241597 16.6145 -0.0494325 17.0687 0.048004V0.048004Z" fill="#595959"/>
</svg>
