<svg width="189" height="41" viewBox="0 0 189 41" fill="none" xmlns="http://www.w3.org/2000/svg">
<g clip-path="url(#clip0_4604_2012)">
<path d="M16.8666 2.7639L17.9611 3.06504C18.4028 3.17592 18.6949 3.41519 18.8399 3.76535C18.9874 4.14848 19.0603 4.55667 19.0543 4.96756V17.5534L8.04606 2.42542H0.147217V2.75923L0.710674 3.32649C1.02023 3.61595 1.2637 3.85639 1.43992 4.04431C1.62888 4.25093 1.79059 4.4812 1.92106 4.72945C2.06483 4.99713 2.25806 5.39786 2.50075 5.93166V21.9934C2.51061 22.3936 2.41883 22.7897 2.2341 23.1442C2.0496 23.4731 1.73681 23.7093 1.37152 23.7955L0.279386 24.1352V24.469H5.32036V24.1352L4.32098 23.7955C3.89974 23.6625 3.62342 23.4399 3.49202 23.1279C3.34988 22.7672 3.28203 22.3812 3.29261 21.9934V7.03699L15.9646 24.5635H19.8566V4.93371C19.8507 4.54054 19.8951 4.14825 19.9888 3.76652C20.0769 3.4327 20.3204 3.19926 20.7192 3.0662L21.6143 2.76507V2.42542H16.8724L16.8666 2.7639Z" fill="#62748E"/>
<path d="M78.2176 2.48254L84.9491 22.3458C85.0795 22.7517 85.2815 23.1306 85.5457 23.464C85.766 23.7208 86.1094 23.9362 86.5731 24.1183L86.9706 24.2521V24.5861H76.8582V24.2521L77.3582 24.087C77.8234 23.9089 78.1059 23.6591 78.2049 23.337C78.3039 23.0149 78.2873 22.6305 78.1551 22.1847L76.5965 17.3781H69.2342L67.6424 22.0841C67.4879 22.5725 67.4385 22.9617 67.494 23.2511C67.5496 23.5406 67.8095 23.7749 68.2733 23.9523L69.0028 24.2521V24.5812H60.5975C59.1823 24.5827 58.0822 24.2264 57.2977 23.5128C56.5132 22.7993 56.121 21.6646 56.1209 20.1085V9.03528H56.0116C55.2789 9.08078 54.0108 9.06943 52.7508 9.24329C52.154 9.35996 51.8859 9.48226 51.6043 9.67004C51.3226 9.85796 51.1522 10.0533 50.7684 10.5587L47.2899 15.2833L51.826 22.3741C52.3779 23.2402 53.1183 23.7947 54.0457 24.0382L54.575 24.2052V24.5382H45.4364V24.2052L45.9979 24.0724C46.3726 23.9822 46.61 23.7986 46.7098 23.5226C46.8095 23.2463 46.7492 22.9297 46.5282 22.5734L43.6151 18.0128L40.4676 22.6075C40.2035 22.9622 40.1207 23.2675 40.2196 23.5226C40.3185 23.7777 40.5454 23.9495 40.8993 24.0382L41.5614 24.2052V24.5382H36.5946V24.2052L37.4549 24.006C37.8995 23.9215 38.3217 23.7451 38.6961 23.4894C39.0534 23.2166 39.3625 22.8845 39.6082 22.507L43.1844 17.3468L38.6805 10.1554C38.5065 9.88181 38.307 9.62535 38.0848 9.38977C37.9086 9.21236 37.6323 9.07906 37.2567 8.99036L36.7928 8.85754V8.52551H45.201V8.85754L44.6375 8.99036C43.8647 9.23389 43.7101 9.72231 44.1737 10.4552L46.8895 14.6827L49.8348 10.5978C50.0766 10.2197 50.1925 9.90235 50.1825 9.64563C50.1724 9.42315 50.0065 9.25415 49.6844 9.13977C49.6392 9.1246 49.5899 9.10983 49.5389 9.09583L48.7098 8.86243V8.52844H51.5555C52.2581 8.52259 53.328 8.45603 53.7372 8.42102C54.5568 8.35798 55.9068 8.01145 56.4041 7.72083C56.9446 7.39853 57.4407 7.00617 57.8797 6.55383L60.5985 3.51868H60.9295L60.8309 8.18762H64.5418V8.85559H60.7938V20.7062C60.7938 21.4845 60.833 22.0539 61.1112 22.5021C62.035 23.991 63.0581 24.1991 63.7166 24.2179C64.241 24.2001 64.7596 24.0992 65.2528 23.9191C65.6945 23.7405 66.0386 23.5489 66.2821 23.2921C66.5569 22.979 66.7603 22.6089 66.8778 22.2081L73.7088 2.48254H78.2176ZM69.4637 16.7052H76.3944L73.0457 6.31653L69.4637 16.7052Z" fill="#62748E"/>
<path d="M102.422 1.4917L102.289 6.16064V22.479C102.273 22.8547 102.352 23.2281 102.52 23.564C102.676 23.8429 102.963 24.0373 103.381 24.1528L103.679 24.2515V24.5825L98.0115 24.9526L97.7127 23.7495C97.0815 24.1673 96.3943 24.4934 95.6726 24.7183C94.8529 24.9709 93.9996 25.0954 93.1424 25.0864C91.9145 25.1054 90.7025 24.8006 89.6277 24.2026C88.589 23.6128 87.7652 22.6999 87.157 21.4644C86.5489 20.2288 86.2449 18.6434 86.2449 16.7085C86.2449 14.7492 86.5876 13.1293 87.2732 11.8501C87.9588 10.571 88.8651 9.61391 89.992 8.979C91.1162 8.34602 92.3846 8.01828 93.6726 8.02783C94.4192 8.02518 95.1644 8.10342 95.8943 8.26123C96.5553 8.39975 97.1924 8.63576 97.7849 8.96143V4.61963C97.7849 4.15178 97.7149 3.80624 97.5701 3.58447C97.4252 3.36271 97.1208 3.20638 96.657 3.11768L96.0281 2.98291V2.6499L102.056 1.18115L102.422 1.4917ZM95.0935 8.96143C94.0346 8.95676 93.1288 9.57401 92.3767 10.812C91.6248 12.05 91.2488 13.9918 91.2488 16.6372C91.248 19.2857 91.6015 21.1497 92.3094 22.229C93.0173 23.3083 93.9354 23.8481 95.0623 23.8481C95.979 23.8509 96.8731 23.5581 97.6131 23.0132L97.614 9.76221C96.7948 9.22847 95.9545 8.96148 95.0935 8.96143Z" fill="#62748E"/>
<path d="M122.247 5.57684C122.766 6.0554 123.449 6.3127 124.153 6.29466C124.853 6.31443 125.532 6.05662 126.044 5.57684C126.547 5.10968 126.825 4.44608 126.806 3.75719C126.806 3.00085 126.552 2.38885 126.044 1.9212C125.527 1.45131 124.849 1.20045 124.153 1.22088C123.452 1.20227 122.771 1.45264 122.247 1.9212C121.726 2.38807 121.466 3.00007 121.468 3.75719C121.449 4.44959 121.734 5.11521 122.247 5.57684Z" fill="#62748E"/>
<path d="M126.789 23.5516C126.624 23.2839 126.541 22.9275 126.541 22.4824V13.132L126.64 8.85896L126.308 8.52515H116.116V8.85896L116.945 9.05972C117.387 9.19278 117.652 9.40988 117.741 9.6935C117.829 9.97713 117.785 10.3506 117.608 10.7953L114.362 20.043L110.884 10.7288C110.552 9.79505 110.818 9.21651 111.679 8.99319L112.276 8.85896V8.52515H103.68V8.85896L104.143 8.99319C104.875 9.2205 105.463 9.77463 105.735 10.4954L111.604 24.6826H113.534L118.404 10.5957C118.517 10.2207 118.715 9.8774 118.983 9.59313C119.263 9.34631 119.599 9.17413 119.962 9.0924L120.201 9.03521L120.328 9.01537C120.646 8.95858 120.973 9.00476 121.263 9.14726C121.4 9.21736 121.519 9.3189 121.611 9.44373C121.776 9.67716 121.859 10.0273 121.86 10.4942V22.4462C121.877 22.8187 121.791 23.1886 121.611 23.5142C121.445 23.7819 121.141 23.9823 120.699 24.1153L120.236 24.2484V24.5822H127.995V24.2519L127.664 24.1527C127.247 24.0165 126.956 23.8161 126.789 23.5516Z" fill="#62748E"/>
<path d="M137.733 14.6015L136.241 14.1673C135.135 13.7892 134.3 13.3772 133.736 12.9313C133.181 12.5041 132.866 11.8323 132.891 11.1291C132.869 10.3902 133.251 9.69846 133.886 9.327C134.518 8.91337 135.255 8.69283 136.009 8.69205C136.827 8.69205 137.44 8.84223 137.849 9.14259C138.258 9.44295 138.672 9.9604 139.092 10.695L140.251 12.7655H140.584L140.78 9.1601C140.083 8.78558 139.343 8.49938 138.577 8.30805C137.78 8.11553 136.962 8.02031 136.142 8.02442C133.997 8.02442 132.35 8.53643 131.201 9.56044C130.052 10.5845 129.477 11.8295 129.477 13.2955C129.477 14.5202 129.863 15.5551 130.636 16.4002C131.409 17.2452 132.47 17.8677 133.82 18.2677L135.211 18.7019C136.471 19.0801 137.333 19.5026 137.798 19.9695C138.262 20.4363 138.494 21.0374 138.493 21.7728C138.511 22.538 138.143 23.2603 137.515 23.6916C136.863 24.1709 136.006 24.4102 134.945 24.4094C134.038 24.4094 133.292 24.1927 132.707 23.7593C132.122 23.3259 131.586 22.6645 131.099 21.7751L129.971 19.7722H129.639L129.606 23.7406C130.37 24.1337 131.17 24.4526 131.994 24.6931C132.943 24.9604 133.926 25.0893 134.912 25.0759C137.21 25.0759 138.995 24.5865 140.267 23.6076C141.539 22.6287 142.174 21.3292 142.171 19.7092C142.171 18.507 141.829 17.4775 141.144 16.6208C140.459 15.7641 139.322 15.091 137.733 14.6015Z" fill="#62748E"/>
<path d="M151.905 8.02441C153.476 8.02444 154.881 8.36373 156.117 9.04297C157.349 9.71856 158.365 10.7327 159.047 11.9668C159.766 13.2383 160.125 14.7524 160.124 16.5078C160.123 18.2631 159.786 19.7804 159.113 21.0596C158.47 22.3081 157.478 23.3408 156.261 24.0312C155.035 24.7315 153.581 25.082 151.9 25.082C150.219 25.082 148.76 24.7316 147.523 24.0312C146.296 23.3413 145.298 22.3015 144.655 21.043C143.982 19.7514 143.645 18.238 143.645 16.5029C143.644 14.7677 144.003 13.2652 144.722 11.9961C145.412 10.7563 146.437 9.73821 147.678 9.05957C148.924 8.36937 150.334 8.02441 151.905 8.02441ZM151.91 8.69238C151.137 8.69316 150.511 8.91514 150.036 9.35938C149.562 9.80446 149.219 10.5952 149.009 11.7305C148.799 12.8657 148.693 14.479 148.693 16.5703C148.693 18.6391 148.798 20.2419 149.009 21.3779C149.217 22.5124 149.56 23.303 150.036 23.748C150.512 24.193 151.137 24.415 151.91 24.415C152.683 24.4118 153.301 24.1898 153.765 23.748C154.228 23.3061 154.565 22.5156 154.773 21.3779C154.984 20.2419 155.089 18.6392 155.091 16.5703C155.091 14.4782 154.986 12.8649 154.775 11.7305C154.565 10.596 154.228 9.80524 153.765 9.35938C153.302 8.91372 152.684 8.69169 151.91 8.69238Z" fill="#62748E"/>
<path d="M173.987 8.72827C173.544 8.26139 172.903 8.02795 172.063 8.02795C171.428 8.03814 170.806 8.21043 170.256 8.52868C169.641 8.86796 169.081 9.30106 168.598 9.81259C168.111 10.3205 167.703 10.8993 167.387 11.5295V11.2634L167.089 8.39212L166.758 8.0583L161.054 9.99467V10.3285L161.552 10.4615C161.994 10.5503 162.297 10.7117 162.464 10.9459C162.63 11.1801 162.713 11.5416 162.713 12.0303V22.4789C162.728 22.8408 162.642 23.1996 162.464 23.5142C162.297 23.7819 161.994 23.9823 161.552 24.1153L161.054 24.2484V24.5822H169.648V24.2519L168.587 23.9519C167.814 23.7302 167.428 23.1738 167.428 22.2829V12.9652C167.547 12.64 167.685 12.3223 167.842 12.0139C167.98 11.7434 168.165 11.5002 168.389 11.2961C168.633 10.9848 168.898 10.8456 169.186 10.8782C169.472 10.9121 169.727 11.0848 169.948 11.3965L170.015 11.463C170.722 12.3967 171.54 12.8636 172.468 12.8636C173.043 12.8725 173.598 12.6503 174.01 12.2462C174.441 11.8353 174.657 11.2517 174.657 10.4954C174.676 9.84008 174.434 9.20417 173.987 8.72827V8.72827Z" fill="#62748E"/>
<path d="M30.0716 8.00342C31.5107 8.00342 32.7393 8.29847 33.7572 8.88818C34.7478 9.44989 35.5596 10.2834 36.098 11.2915C36.6391 12.3038 36.9095 13.4557 36.9095 14.7466C36.9095 14.9922 36.8987 15.2426 36.8763 15.4976C36.8599 15.7306 36.8162 15.9613 36.7464 16.1841H26.8509C26.8703 18.5868 27.2956 20.317 28.1263 21.3745C28.9572 22.432 30.1917 22.9614 31.8295 22.9614C32.9361 22.9606 33.8326 22.7818 34.5189 22.4263C35.2536 22.0309 35.9073 21.4987 36.4447 20.8579L36.7767 21.1626C36.1303 22.3454 35.1854 23.3359 34.0375 24.0337C32.8982 24.7239 31.5304 25.0688 29.9359 25.0688C28.3647 25.0688 26.9709 24.7254 25.7552 24.0376C24.5422 23.3648 23.5499 22.3507 22.8998 21.1196C22.2134 19.8521 21.8705 18.338 21.8705 16.5786C21.8697 14.754 22.2682 13.2016 23.0658 11.9224C23.8124 10.6913 24.8731 9.68357 26.1371 9.00439C27.3458 8.34752 28.698 8.00376 30.0716 8.00342ZM29.9466 8.69775C29.3544 8.68437 28.7784 8.89266 28.3295 9.28174C27.8843 9.6677 27.5359 10.3518 27.2855 11.3345H27.2904C27.04 12.3203 26.9036 13.7041 26.8812 15.4858H32.4632C32.6796 13.0786 32.5926 11.3456 32.2015 10.2866C31.8104 9.22759 31.0589 8.69775 29.9466 8.69775Z" fill="#62748E"/>
<path d="M181.468 1.42646V5.26929C181.468 5.40526 181.36 5.51549 181.226 5.51549H179.459C179.325 5.51549 179.216 5.40526 179.216 5.26929V1.42646C179.216 0.795125 179.72 0.283325 180.342 0.283325V0.283325C180.964 0.283558 181.468 0.79529 181.468 1.42646V1.42646Z" fill="url(#paint0_linear_4604_2012)"/>
<path fill-rule="evenodd" clip-rule="evenodd" d="M188.292 5.70549L180.989 0.490639C180.48 0.129221 179.779 0.253003 179.42 0.767661V0.767661C179.276 0.976179 179.205 1.22782 179.218 1.48217L179.216 1.4788V2.89557C179.247 2.65811 179.454 2.48589 179.69 2.502C179.832 2.50623 179.969 2.55409 180.083 2.63925L187.017 7.59016C187.277 7.77509 187.602 7.84013 187.912 7.76932C188.222 7.69851 188.488 7.4984 188.646 7.21812C188.934 6.70293 188.77 6.0467 188.292 5.70549Z" fill="url(#paint1_linear_4604_2012)"/>
<path fill-rule="evenodd" clip-rule="evenodd" d="M188.586 6.00118V6.00118C188.51 5.89153 188.415 5.79657 188.306 5.72078H188.313L187.172 4.90576C187.254 4.98717 187.305 5.09576 187.315 5.21192C187.327 5.39857 187.214 5.57762 187.017 5.72331V5.72331L179.694 10.9534C179.188 11.3153 179.856 11.3237 180.212 11.8402L179.982 12.0737C180.339 12.588 180.482 13.1868 180.99 12.8254L188.313 7.5949C188.821 7.23071 188.943 6.51801 188.586 6.00118V6.00118Z" fill="#90A1B9"/>
<path fill-rule="evenodd" clip-rule="evenodd" d="M182.174 11.9774C181.965 12.0882 181.706 12.0142 181.584 11.8085C181.506 11.6882 181.466 11.5467 181.468 11.4026V8.04459C181.468 7.90858 181.359 7.79844 181.225 7.79797H179.459C179.325 7.79844 179.216 7.90865 179.216 8.04459V11.8874C179.218 12.5178 179.721 13.0285 180.342 13.0306V13.0306C180.594 13.0304 180.838 12.9441 181.035 12.7856L181.033 12.7924L182.174 11.9774Z" fill="url(#paint2_linear_4604_2012)"/>
<path d="M91.7531 33.5543C93.1552 33.5543 94.1272 34.5697 94.1272 36.2301C94.127 37.8797 93.1551 38.9156 91.7531 38.9156C91.0246 38.9156 90.3949 38.5777 89.9533 38.0172V40.735H89.1262V33.6813H89.9533V34.442C90.3397 33.9239 91.0025 33.5544 91.7531 33.5543ZM48.0119 33.5543C49.1491 33.5543 50.0764 34.0406 50.0764 35.278V38.7887H49.2483V38.2076C48.8178 38.6727 48.1999 38.9156 47.4826 38.9156C46.5885 38.9156 45.6274 38.3344 45.6272 37.2242C45.6272 36.0715 46.5773 35.5426 47.4826 35.5426C48.2111 35.5427 48.8178 35.7648 49.2483 36.2301V35.3092C49.248 34.6326 48.6742 34.2418 47.9016 34.2418C47.2614 34.2419 46.7424 34.4529 46.2678 34.9498L45.8811 34.4C46.4551 33.829 47.1399 33.5544 48.0119 33.5543ZM56.5754 33.6813H57.6574V34.3785H56.5754V37.5514C56.5754 37.9321 56.7524 38.2076 57.1057 38.2076C57.3485 38.2076 57.5588 38.1013 57.6692 37.985L57.9113 38.5885C57.7016 38.7787 57.4034 38.9156 56.9289 38.9156C56.1342 38.9156 55.7367 38.4825 55.7365 37.7213V34.3785H54.8537V33.6813H55.7365V32.2848H56.5754V33.6813ZM67.4133 33.5543C69.0252 33.5543 69.9748 34.7601 69.9748 36.2936V36.4938H65.6692C65.7354 37.4562 66.4311 38.2604 67.5793 38.2604C68.1975 38.2603 68.8051 38.0271 69.2356 37.6041L69.633 38.1227C69.0921 38.6303 68.374 38.9156 67.5129 38.9156C65.9233 38.9156 64.7865 37.8268 64.7863 36.2301C64.7863 34.7495 65.8898 33.5544 67.4133 33.5543ZM76.8049 33.5543C77.7212 33.5543 78.3619 33.8821 78.7815 34.2946L78.3947 34.8444C78.0746 34.4742 77.5004 34.1989 76.8049 34.1989C76.0765 34.1989 75.6235 34.548 75.6233 35.0026C75.6233 36.113 78.9248 35.3837 78.925 37.3717C78.925 38.2283 78.2071 38.9156 76.8381 38.9156C75.9549 38.9156 75.2258 38.6513 74.6848 38.1119L75.1047 37.5406C75.458 37.932 76.1319 38.2711 76.8606 38.2711C77.6772 38.271 78.13 37.9007 78.1301 37.3932C78.1301 36.1558 74.8283 36.9171 74.8283 35.024C74.8283 34.2203 75.5353 33.5543 76.8049 33.5543ZM110.26 33.6813H111.342V34.3785H110.26V37.5514C110.26 37.9321 110.437 38.2076 110.79 38.2076C111.033 38.2076 111.243 38.1013 111.354 37.985L111.596 38.5885C111.386 38.7787 111.088 38.9156 110.613 38.9156C109.819 38.9156 109.421 38.4825 109.421 37.7213V34.3785H108.538V33.6813H109.421V32.2848H110.26V33.6813ZM28.6438 38.7887H27.7278V31.735H28.6438V38.7887ZM33.1633 33.5543C34.2672 33.5544 34.8527 34.0934 34.8528 35.2037V38.7887H34.0354V35.4469C34.0353 34.5376 33.5497 34.2624 32.8322 34.2623C32.181 34.2623 31.5734 34.6429 31.2531 35.0553V38.7887H30.425V33.6813H31.2531V34.4215C31.6285 33.9879 32.3574 33.5543 33.1633 33.5543ZM42.5549 31.735C44.0342 31.7351 44.8625 32.7083 44.8625 33.861C44.8624 35.0136 44.023 35.9868 42.5549 35.9869H40.5119V38.7887H39.5959V31.735H42.5549ZM54.4416 34.3785C54.3423 34.368 54.2427 34.358 54.1213 34.358C53.6024 34.358 52.9072 34.76 52.6643 35.1725V38.7887H51.8362V33.6813H52.6643V34.4957C53.0948 33.9669 53.713 33.5651 54.4416 33.5651V34.3785ZM61.6467 33.5543C62.7507 33.5543 63.3361 34.0934 63.3362 35.2037V38.7887H62.5188V35.4469C62.5187 34.5375 62.0332 34.2623 61.3156 34.2623C60.6643 34.2623 60.0567 34.6429 59.7365 35.0553V38.7887H58.9084V33.6813H59.7365V34.4215C60.1119 33.9879 60.8408 33.5544 61.6467 33.5543ZM74.008 34.3785C73.9087 34.368 73.8091 34.358 73.6877 34.358C73.1689 34.3582 72.4735 34.7601 72.2307 35.1725V38.7887H71.4026V33.6813H72.2307V34.4957C72.6612 33.967 73.2794 33.5651 74.008 33.5651V34.3785ZM81.2024 34.4215C81.5667 33.9879 82.2958 33.5543 83.1018 33.5543C84.2165 33.5544 84.8018 34.0722 84.802 35.1823V38.7887H83.9738V35.4264C83.9738 34.517 83.4992 34.2624 82.7707 34.2623C82.1305 34.2623 81.5115 34.6429 81.2024 35.0553V38.7887H80.3742V31.735H81.2024V34.4215ZM87.3781 38.7887H86.55V33.6813H87.3781V38.7887ZM99.9524 37.7526L101.355 33.6813H102.072L103.463 37.7526L104.766 33.6813H105.638L103.938 38.7887H103.099L101.708 34.6852L100.317 38.7887H99.4885L97.7883 33.6813H98.6496L99.9524 37.7526ZM107.508 38.7887H106.68V33.6813H107.508V38.7887ZM113.433 34.4215C113.797 33.9879 114.525 33.5544 115.331 33.5543C116.446 33.5543 117.031 34.0721 117.031 35.1823V38.7887H116.203V35.4264C116.203 34.5169 115.729 34.2623 115 34.2623C114.36 34.2624 113.742 34.643 113.433 35.0553V38.7887H112.605V31.735H113.433V34.4215ZM126.843 32.5172H124.502V38.7887H123.586V32.5172H121.256V31.735H126.843V32.5172ZM129.066 38.7887H128.149V31.735H129.066V38.7887ZM134.489 37.1705L136.776 31.735H138.089V38.7887H137.173V32.8561L134.678 38.7887H134.302L131.796 32.8561V38.7887H130.88V31.735H132.194L134.489 37.1705ZM144.728 31.735V32.5172H140.82V34.7916H144.651V35.5739H140.82V38.0065H144.728V38.7887H139.904V31.735H144.728ZM47.7912 36.1129C47.0075 36.113 46.467 36.5792 46.467 37.2242C46.4672 37.8797 47.0076 38.3453 47.7912 38.3453C48.3651 38.3453 48.928 38.1333 49.2483 37.7106V36.7369C48.928 36.3248 48.3651 36.1129 47.7912 36.1129ZM91.5432 34.2623C90.8919 34.2625 90.2403 34.6327 89.9533 35.0768V37.3824C90.2403 37.8265 90.8919 38.2075 91.5432 38.2076C92.614 38.2076 93.2549 37.3615 93.2551 36.2301C93.2551 35.0985 92.6141 34.2623 91.5432 34.2623ZM67.4026 34.2096C66.2654 34.2096 65.7026 35.1299 65.6584 35.902H69.1574C69.1464 35.1511 68.6169 34.2097 67.4026 34.2096ZM40.5119 35.2037H42.4445C43.3165 35.2036 43.9122 34.6539 43.9123 33.861C43.9123 33.0679 43.3166 32.5173 42.4445 32.5172H40.5119V35.2037ZM86.969 31.8834C87.2781 31.8834 87.5217 32.1264 87.5217 32.4225C87.5217 32.7186 87.2781 32.9508 86.969 32.9508C86.66 32.9506 86.4065 32.7185 86.4065 32.4225C86.4065 32.1265 86.66 31.8836 86.969 31.8834ZM107.099 31.8834C107.408 31.8834 107.652 32.1264 107.652 32.4225C107.652 32.7186 107.408 32.9508 107.099 32.9508C106.79 32.9506 106.536 32.7185 106.536 32.4225C106.536 32.1265 106.79 31.8836 107.099 31.8834Z" fill="#62748E"/>
</g>
<defs>
<linearGradient id="paint0_linear_4604_2012" x1="181.502" y1="5.05372" x2="179.216" y2="3.71369" gradientUnits="userSpaceOnUse">
<stop stop-color="#CAD5E2"/>
<stop offset="0.395719" stop-color="#CAD5E2"/>
<stop offset="1" stop-color="#62748E"/>
</linearGradient>
<linearGradient id="paint1_linear_4604_2012" x1="169.74" y1="2.82134" x2="179.437" y2="15.5913" gradientUnits="userSpaceOnUse">
<stop offset="0.162867" stop-color="#62748E"/>
<stop offset="0.640361" stop-color="#E2E8F0"/>
<stop offset="0.673869" stop-color="#E2E8F0"/>
<stop offset="1" stop-color="#E2E8F0"/>
</linearGradient>
<linearGradient id="paint2_linear_4604_2012" x1="176.132" y1="10.017" x2="183.096" y2="17.463" gradientUnits="userSpaceOnUse">
<stop offset="0.0862527" stop-color="#62748E"/>
<stop offset="0.485591" stop-color="#E2E8F0"/>
<stop offset="0.534282" stop-color="#E2E8F0"/>
<stop offset="0.785668" stop-color="#E2E8F0"/>
<stop offset="1" stop-color="#CAD5E2"/>
</linearGradient>
<clipPath id="clip0_4604_2012">
<rect width="188.706" height="40.4698" fill="white" transform="translate(0.147217 0.265137)"/>
</clipPath>
</defs>
</svg>
