<svg width="222" height="33" viewBox="0 0 222 33" fill="none" xmlns="http://www.w3.org/2000/svg">
<g clip-path="url(#clip0_4604_2068)">
<path d="M205.669 0.484375C214.372 0.484375 221.428 7.53928 221.428 16.2422C221.428 24.945 214.372 32 205.669 32C196.967 31.9998 189.911 24.9449 189.911 16.2422C189.911 7.53941 196.966 0.484581 205.669 0.484375ZM200.211 9.29688C199.615 9.29707 199.13 9.78208 199.122 10.3779L199.114 11.9092C199.114 12.1951 199.227 12.4798 199.434 12.6787C199.642 12.8857 199.917 12.999 200.203 12.999H206.283L199.035 20.2471C198.832 20.4514 198.718 20.7282 198.718 21.0166C198.718 21.305 198.832 21.5818 199.035 21.7861L200.116 22.8672C200.333 23.0831 200.61 23.1865 200.887 23.1865C201.164 23.1864 201.441 23.083 201.656 22.8672L208.904 15.6191V21.6992C208.904 21.9851 209.017 22.2618 209.224 22.4688C209.432 22.6767 209.708 22.7631 209.993 22.7891L211.525 22.7803C212.121 22.7802 212.605 22.2882 212.606 21.6904V10.3877C212.608 10.2448 212.582 10.1024 212.529 9.96973C212.475 9.83719 212.396 9.7167 212.295 9.61523C212.194 9.51366 212.074 9.43336 211.942 9.37891C211.809 9.32446 211.668 9.29665 211.525 9.29785V9.29688H200.211Z" fill="#62748E"/>
<path fill-rule="evenodd" clip-rule="evenodd" d="M32.5366 30.455V20.33H34.3486C39.9586 20.33 42.4646 18.038 42.4646 13.26V7.025C42.4646 2.3 39.9586 0 34.3486 0H28.5656C27.6206 0 27.0576 0.533 27.0576 1.501V30.455C27.0576 31.423 27.6126 32 28.5656 32H31.0286C31.9736 32 32.5366 31.431 32.5366 30.455ZM36.9856 13.25C36.9856 14.893 36.2926 15.995 34.3496 15.995H32.5376V4.325H34.3496C36.2926 4.325 36.9856 5.435 36.9856 7.025V13.25ZM60.2426 25.244V6.756C60.2426 2.226 57.8136 0 52.5176 0C47.2296 0 44.8346 2.217 44.8346 6.756V25.244C44.8346 29.774 47.2296 32 52.5176 32C57.8056 32 60.2426 29.783 60.2426 25.244ZM50.1726 25.244V6.756C50.1726 5.275 50.7976 4.276 52.5256 4.267C54.2456 4.267 54.9206 5.275 54.9206 6.756V25.244C54.9206 26.734 54.2466 27.733 52.5256 27.733C50.8056 27.733 50.1726 26.725 50.1726 25.244Z" fill="#62748E"/>
<path d="M68.5396 30.455C68.5396 31.432 68.0516 32 67.2336 32H65.1036C64.2786 32 63.7986 31.423 63.7986 30.455V1.50002C63.7986 0.533023 64.2856 2.34375e-05 65.1036 2.34375e-05H67.2336C68.0516 2.34375e-05 68.5386 0.533024 68.5386 1.50102L68.5396 30.455ZM83.5016 1.50102C83.5016 0.533024 84.0396 2.34375e-05 84.9426 2.34375e-05H87.2866C88.1976 2.34375e-05 88.6866 0.533024 88.6866 1.50102V30.455C88.6866 31.432 88.1896 32 87.2866 32H85.3406C84.4706 32 84.1476 31.512 83.8986 30.854L78.5226 15.036V30.455C78.5226 31.432 78.0256 32 77.1226 32H74.7206C73.8096 32 73.2796 31.423 73.2796 30.455V1.50002C73.2796 0.532023 73.8176 -0.000976562 74.7206 -0.000976562H76.6256C77.4956 -0.000976562 77.8596 0.487023 78.0676 1.14502L83.5016 17.185V1.50002V1.50102ZM101.596 4.32602V30.454C101.596 31.431 101.014 32 100.038 32H97.4936C96.5086 32 95.9356 31.422 95.9356 30.454V4.32602H91.4306C90.4546 4.32602 89.8726 3.74902 89.8726 2.78102V1.50002C89.8726 0.532023 90.4546 -0.000976562 91.4306 -0.000976562H106.092C107.077 -0.000976562 107.65 0.532023 107.65 1.50002V2.78002C107.65 3.74802 107.068 4.32502 106.092 4.32502H101.596V4.32602ZM117.475 12.075L122.183 16.525C124.837 18.97 125.42 21.021 125.42 25.245C125.42 29.783 123.02 32 117.72 32C112.421 32 110.021 29.774 110.021 25.244V21.801C110.021 20.837 110.528 20.276 111.449 20.276H113.892C114.813 20.276 115.32 20.846 115.32 21.801V25.244C115.32 26.725 115.996 27.733 117.72 27.733C119.445 27.733 120.121 26.733 120.121 25.244C120.121 22.799 119.783 21.625 117.974 19.925L113.224 15.475C110.57 13.03 110.029 10.979 110.029 6.75502C110.029 2.21702 112.43 2.34375e-05 117.729 2.34375e-05C123.028 2.34375e-05 125.428 2.22602 125.428 6.75602V10.199C125.428 11.154 124.921 11.68 124 11.68H121.557C120.636 11.68 120.129 11.154 120.129 10.2V6.75502C120.129 5.27402 119.453 4.26602 117.729 4.26602C116.005 4.26602 115.329 5.26602 115.329 6.75502C115.337 9.19902 115.667 10.375 117.475 12.075ZM149.439 15.472C150.383 15.472 150.945 15.992 150.945 16.934V25.332C150.945 29.812 148.444 32 143.018 32C137.592 32 135.135 29.803 135.135 25.332V7.07502C135.135 2.59502 137.592 0.406023 143.018 0.406023C148.444 0.406023 150.945 2.60302 150.945 7.07502V9.92002C150.945 10.863 150.383 11.425 149.439 11.425H146.982C146.03 11.425 145.476 10.863 145.476 9.92002V7.07502C145.476 5.61302 144.784 4.61802 143.018 4.61802C141.253 4.61802 140.604 5.60402 140.604 7.07502V25.323C140.604 26.785 141.253 27.779 143.018 27.779C144.784 27.779 145.476 26.793 145.476 25.323V19.684H144.446C143.494 19.684 142.984 19.122 142.984 18.179V16.934C142.984 15.983 143.503 15.472 144.446 15.472H149.439ZM153.896 2.08402C153.896 1.14202 154.458 0.623023 155.402 0.623023H157.859C158.803 0.623023 159.365 1.14202 159.365 2.08402V25.332C159.365 26.794 160.014 27.788 161.779 27.788C163.545 27.788 164.237 26.802 164.237 25.332V2.08402C164.237 1.14202 164.8 0.623023 165.743 0.623023H168.201C169.144 0.623023 169.706 1.14202 169.706 2.08402V25.332C169.706 29.812 167.205 32 161.779 32C156.354 32 153.896 29.803 153.896 25.332V2.08402ZM175.781 0.623023C176.387 0.623023 177.027 0.883023 177.243 1.65202L179.095 8.62202L180.341 14.867H180.688L181.89 8.62302L183.786 1.65202C184.002 0.874023 184.651 0.622023 185.248 0.622023H187.576C188.865 0.622023 189.255 1.65202 188.909 2.69002L183.223 20.592V30.279C183.223 31.23 182.704 31.784 181.761 31.784H179.26C178.308 31.784 177.797 31.222 177.797 30.279V20.592L172.068 2.69002C171.766 1.66002 172.155 0.623023 173.444 0.623023H175.781ZM5.16557 2.58502V9.94502C5.16557 10.289 4.95157 10.495 4.59357 10.495H3.67157C3.31357 10.495 3.09957 10.297 3.09957 9.94502V2.58502H1.77757C1.41857 2.58502 1.20557 2.38802 1.20557 2.03502V1.34502C1.20557 1.00102 1.41857 0.795023 1.77757 0.795023H6.48757C6.84657 0.795023 7.05957 0.993024 7.05957 1.34502V2.04302C7.05957 2.38802 6.84657 2.59302 6.48757 2.59302H5.16557V2.58502ZM10.8656 4.60302H12.8616V1.34602C12.8616 1.00102 13.0746 0.796023 13.4336 0.796023H14.3546C14.7136 0.796023 14.9266 0.993023 14.9266 1.34602V9.95302C14.9266 10.297 14.7136 10.503 14.3546 10.503H13.4416C13.0836 10.503 12.8696 10.306 12.8696 9.95302V6.68702H10.8736V9.94502C10.8736 10.289 10.6596 10.495 10.3016 10.495H9.37957C9.02157 10.495 8.80857 10.297 8.80857 9.94502V1.34502C8.80857 1.00102 9.02157 0.795023 9.37957 0.795023H10.3016C10.6596 0.795023 10.8736 0.993024 10.8736 1.34502V4.60302H10.8656ZM21.3696 0.796023C21.7276 0.796023 21.9406 0.993023 21.9406 1.34602V2.04302C21.9406 2.38802 21.7276 2.59302 21.3696 2.59302H19.3456V4.61002H20.8396C21.1976 4.61002 21.4106 4.80702 21.4106 5.16002V5.85702C21.4106 6.20202 21.1976 6.40702 20.8396 6.40702H19.3456V8.71302H21.3686C21.7266 8.71302 21.9396 8.91802 21.9396 9.26302V9.96002C21.9396 10.305 21.7266 10.51 21.3686 10.51H17.8526C17.4946 10.51 17.2806 10.313 17.2806 9.96002V1.34602C17.2806 1.00102 17.4936 0.796023 17.8526 0.796023H21.3696Z" fill="#62748E"/>
</g>
<defs>
<clipPath id="clip0_4604_2068">
<rect width="221" height="32" fill="white" transform="translate(0.852783 0.5)"/>
</clipPath>
</defs>
</svg>
